#N canvas 151 104 937 608 10;
#X text 294 -33 All the 'send's required to operate RythemPatch;
#X obj 143 15 vsl 15 128 0 127 0 0 empty empty empty 0 -9 0 10 -262144
-1 -1 0 1;
#X obj 26 223 send tempo;
#X obj 43 15 vsl 15 128 0 127 0 0 empty empty empty 0 -9 0 10 -262144
-1 -1 0 1;
#X obj 34 154 * 5;
#X text 17 240 milliseconds between sequence notes;
#X obj 122 200 send separation;
#X text 122 220 spacing between sequence notes;
#X obj 268 15 vsl 15 128 0 127 0 0 empty empty empty 0 -9 0 10 -262144
-1 -1 0 1;
#X text 250 206 base pitch in midi;
#X obj 250 186 send pitch;
#X obj 135 154 * 1;
#X obj 259 154 * 1;
#X obj 358 91 send sawtooth;
#X msg 358 70 0;
#X msg 396 70 1;
#X msg 358 112 0;
#X msg 396 112 1;
#X msg 358 165 0;
#X msg 396 165 1;
#X obj 358 133 send sinewave;
#X obj 358 186 send square;
#X text 344 51 enable/disable waveforms;
#X text 151 -10 sequencer stuff;
#X obj 462 181 send writetable;
#X text 462 201 send a list of 'index' \, 'value' to set the table
values;
#X obj 462 160 0 \, 3;
#X msg 462 139 bang;
#X obj 730 29 send start;
#X obj 730 71 send stop;
#X msg 730 8 bang;
#X msg 730 50 bang;
#X text 701 -23 globally start and stop the sequencer;
#X obj 145 298 vsl 15 128 0 127 0 0 empty empty empty 0 -9 0 10 -262144
-1 -1 0 1;
#X obj 45 298 vsl 15 128 0 127 0 0 empty empty empty 0 -9 0 10 -262144
-1 -1 0 1;
#X obj 270 298 vsl 15 128 0 127 0 0 empty empty empty 0 -9 0 10 -262144
-1 -1 0 1;
#X obj 11 511 send dist;
#X obj 265 469 send noise;
#X text 5 529 amount the signal is distorted 0=none;
#X obj 109 490 send distwrap;
#X text 109 510 amount of 'wrap' signal to mix back in;
#X text 265 489 amount of noise to mix in;
#X text 135 274 distortion stuff;
#X obj 551 298 vsl 15 128 0 127 0 0 empty empty empty 0 -9 0 10 -262144
-1 -1 0 1;
#X obj 451 298 vsl 15 128 0 127 0 0 empty empty empty 0 -9 0 10 -262144
-1 -1 0 1;
#X obj 442 437 * 5;
#X obj 676 298 vsl 15 128 0 127 0 0 empty empty empty 0 -9 0 10 -262144
-1 -1 0 1;
#X obj 437 505 send delaytime;
#X obj 544 484 send delaymix;
#X obj 671 469 send delayfeedback;
#X text 434 524 time of delay in millis;
#X text 544 504 amount delay mixes in;
#X obj 544 437 / 127;
#X obj 667 437 / 127;
#X text 671 489 amount delay feeds back into delay;
#X text 531 268 delay stuff;
#X obj 138 437 / 127;
#X obj 261 437 / 127;
#X obj 36 437 / 10;
#X connect 1 0 11 0;
#X connect 3 0 4 0;
#X connect 4 0 2 0;
#X connect 8 0 12 0;
#X connect 11 0 6 0;
#X connect 12 0 10 0;
#X connect 14 0 13 0;
#X connect 15 0 13 0;
#X connect 16 0 20 0;
#X connect 17 0 20 0;
#X connect 18 0 21 0;
#X connect 19 0 21 0;
#X connect 26 0 24 0;
#X connect 27 0 26 0;
#X connect 30 0 28 0;
#X connect 31 0 29 0;
#X connect 33 0 56 0;
#X connect 34 0 58 0;
#X connect 35 0 57 0;
#X connect 43 0 52 0;
#X connect 44 0 45 0;
#X connect 45 0 47 0;
#X connect 46 0 53 0;
#X connect 52 0 48 0;
#X connect 53 0 49 0;
#X connect 56 0 39 0;
#X connect 57 0 37 0;
#X connect 58 0 36 0;
