#N canvas 311 22 718 639 10;
#X obj 139 50 bng 15 250 50 0 empty empty empty 17 7 0 10 -262144 -1
-1;
#X msg 195 71 stop;
#X obj 175 197 tabread sticky;
#X obj 174 275 mtof;
#X obj 167 587 dac~;
#X obj 271 47 table sticky 16;
#X msg 14 228 \; sticky 0 3 5 8;
#X obj 174 252 +;
#X obj 555 160 hsl 128 15 0 127 0 0 empty empty empty -2 -8 0 10 -262144
-1 -1 7800 1;
#X obj 169 97 metro;
#X obj 549 59 hsl 128 15 0 127 0 0 empty empty empty -2 -8 0 10 -262144
-1 -1 11300 1;
#X obj 175 223 *;
#X obj 552 100 hsl 128 15 0 127 0 0 empty empty empty -2 -8 0 10 -262144
-1 -1 3800 1;
#X obj 531 120 * 0.1;
#X obj 14 205 loadbang;
#X obj 556 40 receive tempo;
#X obj 560 78 receive separation;
#X obj 567 137 receive pitch;
#X obj 530 178 clip 10 100;
#X obj 163 556 clip~ -1 1;
#X obj 465 102 loadbang;
#X obj 523 99 10;
#X obj 475 42 loadbang;
#X obj 531 39 300;
#X obj 466 162 loadbang;
#X obj 525 162 60;
#X obj 58 67 receive start;
#X obj 178 48 receive stop;
#X obj 549 352 r start;
#X obj 549 377 1;
#X obj 599 352 r stop;
#X obj 599 377 0;
#X obj 167 383 *~ 1;
#N canvas 0 22 450 300 cheapsquare 0;
#X obj 80 45 inlet~;
#X obj 83 197 outlet~;
#X obj 79 72 osc~;
#X obj 79 100 *~ 1000;
#X obj 81 127 clip~ -1 1;
#X obj 240 144 switch~;
#X obj 236 101 inlet;
#X connect 0 0 2 0;
#X connect 2 0 3 0;
#X connect 3 0 4 0;
#X connect 4 0 1 0;
#X connect 6 0 5 0;
#X restore 213 329 pd cheapsquare;
#N canvas 0 22 450 300 sawtooth 0;
#X obj 78 98 inlet~;
#X obj 82 224 outlet~;
#X obj 67 169 phasor~;
#X obj 240 144 switch~;
#X obj 236 101 inlet;
#X connect 0 0 2 0;
#X connect 2 0 1 0;
#X connect 4 0 3 0;
#X restore 64 330 pd sawtooth;
#N canvas 0 22 450 300 sinewave 0;
#X obj 78 98 inlet~;
#X obj 82 224 outlet~;
#X obj 240 144 switch~;
#X obj 236 101 inlet;
#X obj 66 169 osc~;
#X connect 0 0 4 0;
#X connect 3 0 2 0;
#X connect 4 0 1 0;
#X restore 139 330 pd sinewave;
#X obj 579 254 receive sawtooth;
#X obj 475 253 loadbang;
#X obj 579 278 receive sinewave;
#X obj 579 300 receive square;
#N canvas 352 95 572 446 distortion 0;
#X obj 70 5 inlet~;
#X obj 81 403 outlet~;
#X obj 60 156 clip~ -1 1;
#X obj 171 156 wrap~;
#X obj 128 265 *~ 0.2;
#X obj 26 247 *~ 0.8;
#X obj 63 220 - 1;
#X obj 67 116 *~ 2;
#X obj 345 111 hsl 128 15 0 127 0 0 empty empty empty -2 -8 0 10 -262144
-1 -1 1700 1;
#X obj 133 106 + 1;
#X obj 142 75 r dist;
#X obj 168 240 r distwrap;
#X obj 64 196 r distwrap;
#X obj 346 10 hsl 128 15 0 127 0 0 empty empty empty -2 -8 0 10 -262144
-1 -1 1600 1;
#X obj 346 35 / 10;
#X obj 383 32 s dist;
#X obj 346 158 s distwrap;
#X obj 345 135 / 127;
#X obj 272 256 *~ 0.1;
#X obj 307 231 r noise;
#X obj 121 293 *~ 1;
#X obj 377 348 hsl 128 15 0 127 0 0 empty empty empty -2 -8 0 10 -262144
-1 -1 0 1;
#X obj 379 372 / 127;
#X obj 381 395 s noise;
#X obj 256 220 rfft~;
#X text 271 11 Distortion.;
#X text -20 82 we multiply by 'dist' and clip to give it that digital
distortion;
#X text 339 76 amount we factor in our 'wrapping' distortion;
#X text 173 94 'wrap' takes the fractional part of the signal and uses
that \, think of it as 'mod 1';
#X text 317 248 taking the fourier transform splits the signal into
it's frequencies and an offset component. for our purposes here \,
the offset is essentially noise. and cool;
#X text 328 414 amount the fft noise mixes back;
#X connect 0 0 7 0;
#X connect 2 0 5 0;
#X connect 3 0 4 0;
#X connect 3 0 24 0;
#X connect 4 0 20 0;
#X connect 5 0 1 0;
#X connect 6 0 5 1;
#X connect 7 0 2 0;
#X connect 7 0 3 0;
#X connect 8 0 17 0;
#X connect 9 0 7 1;
#X connect 10 0 9 0;
#X connect 11 0 4 1;
#X connect 12 0 6 0;
#X connect 13 0 14 0;
#X connect 14 0 15 0;
#X connect 17 0 16 0;
#X connect 18 0 1 0;
#X connect 19 0 18 1;
#X connect 20 0 1 0;
#X connect 21 0 22 0;
#X connect 22 0 23 0;
#X connect 24 1 18 0;
#X restore 174 437 pd distortion;
#N canvas 0 22 450 300 delay 1;
#X obj 15 13 inlet~;
#X obj 16 276 outlet~;
#X obj 80 15 table delaytab 44100;
#X obj 97 183 delread~ delaytab 100;
#X obj 78 95 delwrite~ delaytab 1000;
#X obj 102 157 receive delaytime;
#X obj 110 206 receive delayfeedback;
#X obj 260 50 hsl 128 15 0 127 0 0 empty empty empty -2 -8 0 10 -262144
-1 -1 12700 1;
#X obj 259 70 / 127;
#X obj 255 94 * 1000;
#X obj 259 116 s delaytime;
#X text 270 18 a super simple delay;
#X obj 266 222 hsl 128 15 0 127 0 0 empty empty empty -2 -8 0 10 -262144
-1 -1 0 1;
#X obj 265 242 / 127;
#X obj 264 265 s delayfeedback;
#X obj 269 153 hsl 128 15 0 127 0 0 empty empty empty -2 -8 0 10 -262144
-1 -1 0 1;
#X obj 268 173 / 127;
#X obj 267 196 s delaymix;
#X obj 51 188 *~ 0.3;
#X obj 71 251 *~ 0.8;
#X obj 103 231 receive delaymix;
#X connect 0 0 1 0;
#X connect 0 0 4 0;
#X connect 3 0 18 0;
#X connect 3 0 19 0;
#X connect 5 0 3 0;
#X connect 6 0 18 1;
#X connect 7 0 8 0;
#X connect 8 0 9 0;
#X connect 9 0 10 0;
#X connect 12 0 13 0;
#X connect 13 0 14 0;
#X connect 15 0 16 0;
#X connect 16 0 17 0;
#X connect 18 0 4 0;
#X connect 19 0 1 0;
#X connect 20 0 19 1;
#X restore 174 476 pd delay;
#X text 332 558 sigmusic's sequencer. it can do multiple waveforms
\, we can change the sequencer table \, separation \, base pitch \,
and tempo \, as well as have several different effects. roboty.;
#X obj 172 530 *~ 0.5;
#X text 410 214 here we have the ability to 'turn on and off' the following
waveforms.;
#X obj 8 114 receive writetable;
#X obj 7 137 unpack f f;
#X obj 9 163 tabwrite sticky;
#N canvas 0 22 450 300 counter 0;
#X obj 171 138 f;
#X obj 204 139 + 1;
#X obj 175 161 % 4;
#X obj 142 93 inlet;
#X obj 150 222 outlet;
#X obj 255 147 r maxsequence;
#X text 252 109 the max number the sequencer goes to;
#X connect 0 0 2 0;
#X connect 1 0 0 1;
#X connect 2 0 1 0;
#X connect 2 0 4 0;
#X connect 3 0 0 0;
#X connect 5 0 2 1;
#X restore 177 148 pd counter;
#X connect 0 0 9 0;
#X connect 1 0 9 0;
#X connect 2 0 11 0;
#X connect 3 0 33 0;
#X connect 3 0 34 0;
#X connect 3 0 35 0;
#X connect 7 0 3 0;
#X connect 8 0 18 0;
#X connect 9 0 48 0;
#X connect 10 0 9 1;
#X connect 11 0 7 0;
#X connect 12 0 13 0;
#X connect 13 0 11 1;
#X connect 14 0 6 0;
#X connect 15 0 10 0;
#X connect 16 0 12 0;
#X connect 17 0 8 0;
#X connect 18 0 7 1;
#X connect 19 0 4 0;
#X connect 19 0 4 1;
#X connect 20 0 21 0;
#X connect 21 0 13 0;
#X connect 22 0 23 0;
#X connect 23 0 10 0;
#X connect 24 0 25 0;
#X connect 25 0 8 0;
#X connect 26 0 9 0;
#X connect 27 0 1 0;
#X connect 28 0 29 0;
#X connect 29 0 32 1;
#X connect 30 0 31 0;
#X connect 31 0 32 1;
#X connect 32 0 40 0;
#X connect 33 0 32 0;
#X connect 34 0 32 0;
#X connect 35 0 32 0;
#X connect 36 0 34 1;
#X connect 37 0 34 1;
#X connect 38 0 35 1;
#X connect 39 0 33 1;
#X connect 40 0 41 0;
#X connect 41 0 43 0;
#X connect 43 0 19 0;
#X connect 45 0 46 0;
#X connect 46 0 47 0;
#X connect 46 1 47 1;
#X connect 48 0 2 0;
